<svg width="500" height="500" viewBox="0 0 500 500" fill="none" xmlns="http://www.w3.org/2000/svg">
<path d="M0 35C0 15.67 15.67 0 35 0H465C484.33 0 500 15.67 500 35V465C500 484.33 484.33 500 465 500H35C15.67 500 0 484.33 0 465V35Z" fill="#2672DE"/>
<path fill-rule="evenodd" clip-rule="evenodd" d="M192.328 127.441C210.409 125.857 224.457 111.076 224.457 93.7866C224.457 75.1777 208.462 60 188.851 60C169.24 60 153.246 75.1777 153.246 93.7866C153.246 99.4615 154.915 105.268 157.697 110.152L170.383 279.549L301.046 279.583L354.638 398.737L425 372.552L414.104 347.933L374.727 361.421L322.873 247.824L201.386 248.598L199.718 227.146L287.665 227.179V195.437L196.363 195.403L192.328 127.441Z" fill="white"/>
<path fill-rule="evenodd" clip-rule="evenodd" d="M323.741 370.38C301.688 411.747 255.529 439 206.294 439C133.98 439 75 383.033 75 314.413C75 266.233 105.772 221.459 151.691 201.612L154.662 238.408C127.503 254.648 110.76 283.951 110.76 314.665C110.76 364.444 153.546 405.044 206.004 405.044C253.998 405.044 294.923 370.093 300.504 325.257L323.741 370.38Z" fill="white"/>
</svg>
