<svg width="1262" height="219" viewBox="0 0 1262 219" fill="none" xmlns="http://www.w3.org/2000/svg">
<path d="M160.32 81.3602C160.32 149.04 113.76 168.24 57.36 168.24H3.93093e-05V149.76L17.52 148.08V20.1602L3.93093e-05 18.7202V0.240223H64.08C122.4 0.240223 160.32 21.6002 160.32 81.3602ZM57.12 148.56H62.88C102 148.56 118.08 128.4 118.08 82.8002C118.08 30.4802 96.24 20.1602 60.72 20.1602H57.12V148.56ZM267.536 148.08L258.176 120.96H206.096L196.736 148.08L213.776 150V168.24H156.896V150L172.256 148.08L228.416 0.000226021H256.736L311.696 148.08L328.016 150V168.24H249.776V150L267.536 148.08ZM232.976 44.4002L211.856 102.24H252.896L233.696 44.4002H232.976ZM336.094 0.240223H404.254C445.534 0.240223 475.054 10.5602 475.054 47.7602C475.054 89.0402 440.974 102 398.974 102H392.974V148.32L418.174 150V168.24H336.094V150L353.374 148.32V20.1602L336.094 18.4802V0.240223ZM392.974 20.1602V82.8002H398.734C421.294 82.8002 432.814 72.9602 432.814 50.4002C432.814 26.1602 422.014 20.1602 400.174 20.1602H392.974ZM489.386 0.240223H620.186L622.106 53.5202H604.826C598.586 24.2402 588.266 19.6802 558.266 19.6802H544.826V74.4002H550.826C567.146 74.4002 572.426 68.1602 576.026 48.2402H589.946V119.28H575.546C571.946 95.2802 566.666 91.2002 549.386 91.2002H544.826V148.32H557.786C594.506 148.32 604.586 139.2 610.106 106.56H627.146L625.226 168.24H489.386V150.24L505.226 148.32V20.4002L489.386 18.4802V0.240223ZM792.851 20.4002V168.24H760.931L683.651 35.5202H682.691V148.56L699.251 150V168.24H646.691V150L660.851 148.56V20.4002L646.691 18.7202V0.240223H710.051L770.051 108H771.011V20.4002L756.131 18.7202V0.240223H806.771V18.7202L792.851 20.4002ZM825.135 149.28C825.135 137.28 832.815 127.92 847.215 127.92C860.415 127.92 869.775 134.4 869.775 148.8C869.775 161.76 862.095 170.64 847.695 170.64C830.415 170.64 825.135 159.6 825.135 149.28ZM968.509 108.72C968.509 77.2802 965.149 60.0002 946.189 60.0002C928.189 60.0002 924.349 77.2802 924.349 107.04C924.349 139.2 928.189 156 946.909 156C964.429 156 968.509 138.96 968.509 108.72ZM884.989 108.72C884.989 71.2802 906.589 45.3602 947.389 45.3602C990.349 45.3602 1007.87 71.2802 1007.87 107.76C1007.87 145.2 987.229 170.88 945.949 170.88C903.469 170.88 884.989 145.2 884.989 108.72ZM1073.25 149.76L1100.61 151.44V168.24H1020.45V151.44L1036.05 149.76V66.9602L1020.45 65.2802V48.9602L1069.41 47.2802L1071.09 67.9202H1072.05C1077.81 56.6402 1087.17 45.3602 1106.61 45.3602C1122.69 45.3602 1135.17 54.0002 1135.17 74.1602C1135.17 90.0002 1125.57 99.3602 1111.89 99.3602C1096.77 99.3602 1091.49 90.0002 1091.73 77.5202L1101.33 74.6402C1101.57 73.4402 1101.81 72.4802 1101.81 71.5202C1101.81 67.4402 1098.93 65.7602 1094.85 65.7602C1081.41 65.7602 1073.25 82.0802 1073.25 99.8402V149.76ZM1144.23 89.7602C1144.23 62.6402 1164.39 45.3602 1195.35 45.3602C1207.59 45.3602 1217.43 48.0002 1223.19 52.0802C1228.71 38.6402 1239.03 32.8802 1248.15 32.8802C1251.27 32.8802 1254.15 33.6002 1256.79 34.8002V57.1202L1234.71 59.2802C1242.15 65.0402 1248.39 73.6802 1248.39 88.8002C1248.39 117.12 1227.27 131.76 1197.27 131.76C1190.07 131.76 1183.35 130.56 1179.03 129.36C1175.19 133.2 1173.03 135.6 1173.03 138.96C1173.03 143.04 1176.15 144 1183.59 144H1214.79C1241.43 144 1261.83 150.72 1261.83 178.08C1261.83 203.04 1243.83 218.88 1194.87 218.88C1154.07 218.88 1141.35 210.48 1141.35 194.16C1141.35 185.04 1146.63 179.04 1153.83 173.76C1146.15 169.92 1142.79 164.16 1142.79 156.96C1142.79 145.44 1148.31 139.44 1166.31 125.28C1153.11 120 1144.23 107.52 1144.23 89.7602ZM1213.59 178.08H1167.27C1165.11 181.44 1163.43 185.04 1163.43 189.36C1163.43 199.2 1172.07 202.32 1197.99 202.32C1221.99 202.32 1234.71 199.44 1234.71 188.4C1234.71 179.52 1227.51 178.08 1213.59 178.08ZM1180.71 87.1202C1180.71 107.28 1184.55 115.68 1196.79 115.68C1208.07 115.68 1212.15 107.52 1212.15 86.6402C1212.15 67.2002 1208.55 59.0402 1197.03 59.0402C1186.47 59.0402 1180.71 67.9202 1180.71 87.1202Z" fill="#2672DE"/>
</svg>
