<svg width="1663" height="332" viewBox="0 0 1663 332" fill="none" xmlns="http://www.w3.org/2000/svg">
<path d="M0 35C0 15.67 15.67 0 35 0H297C316.33 0 332 15.67 332 35V297C332 316.33 316.33 332 297 332H35C15.67 332 0 316.33 0 297V35Z" fill="#2672DE"/>
<path fill-rule="evenodd" clip-rule="evenodd" d="M127.706 84.621C139.712 83.5692 149.039 73.7544 149.039 62.2745C149.039 49.9182 138.419 39.8402 125.397 39.8402C112.376 39.8402 101.756 49.9182 101.756 62.2745C101.756 66.0427 102.864 69.8984 104.711 73.1409L113.135 185.621L199.894 185.643L235.48 264.762L282.2 247.375L274.965 231.028L248.819 239.984L214.388 164.555L133.72 165.069L132.613 150.825L191.01 150.847V129.77L130.385 129.748L127.706 84.621Z" fill="white"/>
<path fill-rule="evenodd" clip-rule="evenodd" d="M214.964 245.932C200.32 273.399 169.671 291.495 136.979 291.495C88.9625 291.495 49.7998 254.333 49.7998 208.769C49.7998 176.778 70.2327 147.048 100.722 133.87L102.696 158.303C84.6618 169.086 73.5448 188.543 73.5448 208.937C73.5448 241.99 101.954 268.948 136.787 268.948C168.655 268.948 195.829 245.741 199.535 215.97L214.964 245.932Z" fill="white"/>
<path d="M561.28 146.12C561.28 213.8 514.72 233 458.32 233H400.96V214.52L418.48 212.84V84.92L400.96 83.48V65H465.04C523.36 65 561.28 86.36 561.28 146.12ZM458.08 213.32H463.84C502.96 213.32 519.04 193.16 519.04 147.56C519.04 95.24 497.2 84.92 461.68 84.92H458.08V213.32Z" fill="#2672DE"/>
<path d="M668.496 212.84L659.136 185.72H607.056L597.696 212.84L614.736 214.76V233H557.856V214.76L573.216 212.84L629.376 64.76H657.696L712.656 212.84L728.976 214.76V233H650.736V214.76L668.496 212.84ZM633.936 109.16L612.816 167H653.856L634.656 109.16H633.936Z" fill="#2672DE"/>
<path d="M737.054 65H805.214C846.494 65 876.014 75.32 876.014 112.52C876.014 153.8 841.934 166.76 799.934 166.76H793.934V213.08L819.134 214.76V233H737.054V214.76L754.334 213.08V84.92L737.054 83.24V65ZM793.934 84.92V147.56H799.694C822.254 147.56 833.774 137.72 833.774 115.16C833.774 90.92 822.974 84.92 801.134 84.92H793.934Z" fill="#2672DE"/>
<path d="M890.346 65H1021.15L1023.07 118.28H1005.79C999.546 89 989.226 84.44 959.226 84.44H945.786V139.16H951.786C968.106 139.16 973.386 132.92 976.986 113H990.906V184.04H976.506C972.906 160.04 967.626 155.96 950.346 155.96H945.786V213.08H958.746C995.466 213.08 1005.55 203.96 1011.07 171.32H1028.11L1026.19 233H890.346V215L906.186 213.08V85.16L890.346 83.24V65Z" fill="#2672DE"/>
<path d="M1193.81 85.16V233H1161.89L1084.61 100.28H1083.65V213.32L1100.21 214.76V233H1047.65V214.76L1061.81 213.32V85.16L1047.65 83.48V65H1111.01L1171.01 172.76H1171.97V85.16L1157.09 83.48V65H1207.73V83.48L1193.81 85.16Z" fill="#2672DE"/>
<path d="M1226.09 214.04C1226.09 202.04 1233.78 192.68 1248.18 192.68C1261.38 192.68 1270.73 199.16 1270.73 213.56C1270.73 226.52 1263.06 235.4 1248.66 235.4C1231.38 235.4 1226.09 224.36 1226.09 214.04Z" fill="#2672DE"/>
<path d="M1369.47 173.48C1369.47 142.04 1366.11 124.76 1347.15 124.76C1329.15 124.76 1325.31 142.04 1325.31 171.8C1325.31 203.96 1329.15 220.76 1347.87 220.76C1365.39 220.76 1369.47 203.72 1369.47 173.48ZM1285.95 173.48C1285.95 136.04 1307.55 110.12 1348.35 110.12C1391.31 110.12 1408.83 136.04 1408.83 172.52C1408.83 209.96 1388.19 235.64 1346.91 235.64C1304.43 235.64 1285.95 209.96 1285.95 173.48Z" fill="#2672DE"/>
<path d="M1474.21 214.52L1501.57 216.2V233H1421.41V216.2L1437.01 214.52V131.72L1421.41 130.04V113.72L1470.37 112.04L1472.05 132.68H1473.01C1478.77 121.4 1488.13 110.12 1507.57 110.12C1523.65 110.12 1536.13 118.76 1536.13 138.92C1536.13 154.76 1526.53 164.12 1512.85 164.12C1497.73 164.12 1492.45 154.76 1492.69 142.28L1502.29 139.4C1502.53 138.2 1502.77 137.24 1502.77 136.28C1502.77 132.2 1499.89 130.52 1495.81 130.52C1482.37 130.52 1474.21 146.84 1474.21 164.6V214.52Z" fill="#2672DE"/>
<path d="M1545.19 154.52C1545.19 127.4 1565.35 110.12 1596.31 110.12C1608.55 110.12 1618.39 112.76 1624.15 116.84C1629.67 103.4 1639.99 97.64 1649.11 97.64C1652.23 97.64 1655.11 98.36 1657.75 99.56V121.88L1635.67 124.04C1643.11 129.8 1649.35 138.44 1649.35 153.56C1649.35 181.88 1628.23 196.52 1598.23 196.52C1591.03 196.52 1584.31 195.32 1579.99 194.12C1576.15 197.96 1573.99 200.36 1573.99 203.72C1573.99 207.8 1577.11 208.76 1584.55 208.76H1615.75C1642.39 208.76 1662.79 215.48 1662.79 242.84C1662.79 267.8 1644.79 283.64 1595.83 283.64C1555.03 283.64 1542.31 275.24 1542.31 258.92C1542.31 249.8 1547.59 243.8 1554.79 238.52C1547.11 234.68 1543.75 228.92 1543.75 221.72C1543.75 210.2 1549.27 204.2 1567.27 190.04C1554.07 184.76 1545.19 172.28 1545.19 154.52ZM1614.55 242.84H1568.23C1566.07 246.2 1564.39 249.8 1564.39 254.12C1564.39 263.96 1573.03 267.08 1598.95 267.08C1622.95 267.08 1635.67 264.2 1635.67 253.16C1635.67 244.28 1628.47 242.84 1614.55 242.84ZM1581.67 151.88C1581.67 172.04 1585.51 180.44 1597.75 180.44C1609.03 180.44 1613.11 172.28 1613.11 151.4C1613.11 131.96 1609.51 123.8 1597.99 123.8C1587.43 123.8 1581.67 132.68 1581.67 151.88Z" fill="#2672DE"/>
</svg>
