<svg width="1025" height="211" viewBox="0 0 1025 211" fill="none" xmlns="http://www.w3.org/2000/svg">
<g clip-path="url(#clip0_1_170)">
<path d="M203.517 9.60102C178.997 -5.71898 146.717 -2.06898 117.927 16.021C89.227 -2.06898 56.927 -5.71898 32.437 9.60102C-6.30299 33.811 -11.013 96.161 21.927 148.871C46.207 187.731 84.177 210.501 117.977 210.081C151.777 210.501 189.747 187.731 214.027 148.871C246.927 96.161 242.257 33.811 203.517 9.60102ZM39.737 137.741C32.9449 126.974 27.8203 115.241 24.537 102.941C21.62 92.264 20.5046 81.1751 21.237 70.131C22.707 50.651 30.637 35.481 43.557 27.411C56.477 19.341 73.557 18.851 91.747 26.071C94.477 27.161 97.177 28.421 99.857 29.811C89.7489 39.0278 80.9595 49.5939 73.737 61.211C53.737 93.211 47.637 128.821 54.617 157.211C49.0514 151.207 44.069 144.688 39.737 137.741ZM211.427 102.931C208.139 115.229 203.015 126.962 196.227 137.731C191.891 144.688 186.909 151.22 181.347 157.241C187.587 131.791 183.347 100.611 168.047 71.371C167.803 70.8895 167.46 70.4645 167.041 70.1237C166.622 69.7828 166.136 69.5337 165.615 69.3923C165.094 69.2509 164.549 69.2205 164.015 69.3029C163.482 69.3854 162.971 69.5789 162.517 69.871L114.817 99.671C114.382 99.9425 114.005 100.297 113.707 100.715C113.409 101.132 113.196 101.604 113.081 102.104C112.966 102.604 112.95 103.121 113.036 103.627C113.121 104.133 113.305 104.616 113.577 105.051L120.577 116.241C120.848 116.676 121.201 117.053 121.618 117.351C122.034 117.648 122.506 117.861 123.005 117.976C123.503 118.091 124.02 118.107 124.525 118.022C125.03 117.937 125.513 117.753 125.947 117.481L156.867 98.161C157.867 101.161 158.867 104.161 159.617 107.161C162.534 117.825 163.652 128.9 162.927 139.931C161.457 159.401 153.527 174.571 140.607 182.651C133.943 186.725 126.307 188.936 118.497 189.051H117.507C109.697 188.938 102.06 186.728 95.397 182.651C82.467 174.571 74.537 159.401 73.067 139.931C72.3391 128.887 73.4544 117.799 76.367 107.121C83.0688 82.4173 96.9224 60.2453 116.187 43.391C124.495 36.0989 133.957 30.239 144.187 26.051C162.327 18.831 179.437 19.311 192.367 27.391C205.297 35.471 213.217 50.631 214.687 70.111C215.429 81.1561 214.327 92.2477 211.427 102.931ZM457.647 79.661C432.567 79.661 412.297 99.241 412.297 124.151C412.297 148.891 432.567 168.151 457.647 168.151C482.897 168.151 503.167 148.921 503.167 124.151C503.167 99.251 482.927 79.671 457.647 79.671V79.661ZM457.647 144.891C446.087 144.891 437.287 135.541 437.287 123.981C437.287 112.421 446.087 102.931 457.647 102.931C469.377 102.931 478.177 112.451 478.177 124.011C478.177 135.571 469.377 144.931 457.647 144.931V144.891ZM559.717 45.491H513.567C513.068 45.4815 512.573 45.5728 512.111 45.7595C511.648 45.9462 511.228 46.2245 510.876 46.5775C510.524 46.9306 510.247 47.3512 510.062 47.814C509.876 48.2769 509.786 48.7725 509.797 49.271V161.781C509.761 162.296 509.832 162.813 510.006 163.299C510.18 163.786 510.452 164.231 510.806 164.606C511.16 164.982 511.589 165.281 512.064 165.483C512.539 165.685 513.051 165.786 513.567 165.781H559.717C596.647 165.781 622.307 141.221 622.307 105.491C622.307 69.541 596.647 45.491 559.717 45.491ZM560.807 142.021H535.557V69.191H560.807C581.247 69.191 595.337 84.481 595.337 105.441C595.337 126.051 581.247 142.021 560.807 142.021ZM714.167 82.081H696.817C695.857 82.157 694.958 82.5847 694.294 83.2823C693.629 83.9799 693.246 84.8981 693.217 85.861V91.011C689.267 84.481 680.337 79.671 669.217 79.671C647.577 79.671 627.307 96.671 627.307 123.821C627.307 150.821 647.397 168.131 669.047 168.131C680.207 168.131 689.317 163.331 693.267 156.801V162.121C693.272 163.075 693.653 163.989 694.327 164.664C695 165.34 695.913 165.723 696.867 165.731H714.217C714.694 165.742 715.168 165.656 715.611 165.479C716.054 165.301 716.457 165.035 716.794 164.698C717.131 164.361 717.397 163.958 717.575 163.515C717.752 163.072 717.838 162.598 717.827 162.121V85.861C717.842 85.3707 717.758 84.8825 717.581 84.4251C717.404 83.9677 717.136 83.5505 716.795 83.1981C716.454 82.8457 716.046 82.5653 715.594 82.3734C715.143 82.1816 714.657 82.0821 714.167 82.081ZM673.807 145.081C662.317 145.081 653.687 136.251 653.687 124.001C653.687 111.751 662.317 102.931 673.807 102.931C685.297 102.931 693.927 111.741 693.927 123.991C693.927 136.241 685.307 145.071 673.807 145.071V145.081ZM811.557 45.491H794.207C793.721 45.4764 793.238 45.5586 792.784 45.7328C792.331 45.907 791.916 46.1698 791.565 46.5059C791.214 46.8419 790.934 47.2444 790.74 47.69C790.547 48.1355 790.443 48.6152 790.437 49.101V90.671C786.437 84.481 777.377 79.671 766.047 79.671C744.567 79.671 724.647 96.671 724.647 123.821C724.647 150.821 744.737 168.131 766.387 168.131C777.547 168.131 785.967 163.331 790.607 156.801V162.121C790.61 163.076 790.989 163.991 791.664 164.667C792.338 165.343 793.252 165.726 794.207 165.731H811.557C812.034 165.743 812.509 165.658 812.953 165.481C813.397 165.304 813.799 165.039 814.137 164.701C814.475 164.364 814.74 163.961 814.917 163.517C815.094 163.073 815.179 162.598 815.167 162.121V49.121C815.182 48.6419 815.099 48.1648 814.923 47.7188C814.748 47.2729 814.483 46.8676 814.145 46.5277C813.807 46.1878 813.403 45.9206 812.958 45.7423C812.513 45.564 812.036 45.4785 811.557 45.491ZM771.197 145.291C759.757 145.291 751.197 136.371 751.197 123.991C751.197 111.611 759.787 102.691 771.197 102.691C782.607 102.691 791.197 111.611 791.197 123.991C791.197 136.371 782.647 145.291 771.197 145.291ZM908.927 45.491H891.607C891.121 45.4764 890.637 45.5585 890.183 45.7326C889.729 45.9067 889.314 46.1694 888.962 46.5053C888.61 46.8412 888.329 47.2436 888.134 47.6892C887.939 48.1349 887.835 48.6147 887.827 49.101V90.671C883.877 84.481 874.767 79.671 863.437 79.671C841.957 79.671 822.037 96.671 822.037 123.821C822.037 150.821 842.137 168.131 863.777 168.131C874.947 168.131 883.357 163.331 887.997 156.801V162.121C888.002 163.077 888.384 163.992 889.06 164.668C889.736 165.344 890.651 165.726 891.607 165.731H908.927C909.404 165.743 909.879 165.659 910.322 165.481C910.765 165.304 911.167 165.039 911.504 164.701C911.841 164.363 912.105 163.96 912.281 163.516C912.457 163.073 912.541 162.598 912.527 162.121V49.121C912.544 48.6424 912.462 48.1655 912.287 47.7196C912.113 47.2737 911.849 46.8682 911.511 46.5282C911.174 46.1882 910.771 45.9207 910.326 45.7424C909.882 45.564 909.406 45.4785 908.927 45.491ZM868.567 145.291C857.117 145.291 848.567 136.371 848.567 123.991C848.567 111.611 857.157 102.691 868.567 102.691C879.977 102.691 888.567 111.611 888.567 123.991C888.567 136.371 880.037 145.291 868.597 145.291H868.567ZM1003.93 87.931L978.037 176.721C973.037 192.521 961.887 201.971 944.537 201.971C936.647 201.971 929.467 200.361 923.837 197.141C920.557 195.271 917.837 193.561 917.837 190.821C917.837 189.121 918.387 188.241 919.387 186.651L924.527 178.951C925.977 176.801 927.047 176.101 928.607 176.101C929.843 176.131 931.039 176.547 932.027 177.291C935.257 179.381 938.257 181.181 942.827 181.181C948.167 181.181 952.247 179.471 954.447 173.111L956.667 165.741H946.187C945.114 165.775 944.063 165.433 943.215 164.774C942.368 164.115 941.778 163.18 941.547 162.131L918.377 87.931C917.517 85.011 918.307 82.091 922.597 82.091H940.847C943.077 82.091 944.637 82.851 945.617 86.041L962.727 145.791L978.727 86.041C979.237 83.981 980.617 82.091 983.367 82.091H1000.68C1004.09 82.081 1005.12 84.481 1003.93 87.931ZM405.757 114.341V161.771C405.765 162.288 405.669 162.801 405.475 163.281C405.281 163.76 404.993 164.195 404.627 164.561C404.261 164.927 403.826 165.215 403.347 165.409C402.867 165.603 402.354 165.699 401.837 165.691H387.517C387 165.701 386.486 165.606 386.006 165.412C385.526 165.218 385.09 164.93 384.724 164.564C384.358 164.198 384.07 163.762 383.876 163.282C383.682 162.802 383.588 162.288 383.597 161.771V149.321C374.507 160.801 358.697 168.031 340.817 168.031C307.237 168.031 280.997 142.771 280.997 106.811C280.997 69.441 309.327 43.681 345.117 43.681C371.537 43.681 392.657 55.041 402.037 77.891C402.3 78.4948 402.446 79.1429 402.467 79.801C402.467 80.881 401.757 81.701 399.467 82.491L382.747 88.931C381.738 89.3492 380.608 89.3671 379.587 88.981C378.692 88.4523 377.99 87.6494 377.587 86.691C371.587 75.281 360.907 67.531 344.467 67.531C323.147 67.531 307.877 84.181 307.877 105.771C307.877 126.701 320.877 143.911 345.077 143.911C357.807 143.911 367.957 137.911 372.687 131.321H357.587C357.07 131.329 356.557 131.233 356.077 131.039C355.598 130.845 355.163 130.557 354.797 130.191C354.431 129.825 354.143 129.39 353.949 128.911C353.755 128.431 353.659 127.918 353.667 127.401V114.511C353.659 113.994 353.755 113.481 353.949 113.001C354.143 112.522 354.431 112.087 354.797 111.721C355.163 111.355 355.598 111.067 356.077 110.873C356.557 110.679 357.07 110.583 357.587 110.591H401.837C402.344 110.565 402.851 110.643 403.328 110.82C403.804 110.997 404.238 111.27 404.605 111.621C404.973 111.972 405.264 112.394 405.462 112.862C405.66 113.33 405.76 113.833 405.757 114.341ZM1004.4 64.521V63.371C1004.4 63.2904 1004.42 63.2121 1004.48 63.151C1004.54 63.0998 1004.61 63.0714 1004.69 63.071H1012C1012.04 63.0697 1012.07 63.0761 1012.11 63.0899C1012.15 63.1036 1012.18 63.1244 1012.21 63.151C1012.26 63.2121 1012.29 63.2904 1012.29 63.371V64.521C1012.29 64.5984 1012.26 64.673 1012.21 64.731C1012.18 64.7577 1012.15 64.7785 1012.11 64.7922C1012.07 64.8059 1012.04 64.8123 1012 64.811H1009.33V72.021C1009.32 72.0998 1009.29 72.1747 1009.24 72.2304C1009.18 72.2861 1009.11 72.3185 1009.03 72.321H1007.65C1007.61 72.3208 1007.57 72.3127 1007.54 72.2972C1007.5 72.2817 1007.47 72.2592 1007.45 72.231C1007.42 72.2039 1007.4 72.1714 1007.38 72.1353C1007.37 72.0992 1007.36 72.0603 1007.36 72.021V64.811H1004.69C1004.65 64.814 1004.61 64.8086 1004.57 64.7951C1004.54 64.7816 1004.5 64.7603 1004.48 64.7327C1004.45 64.7052 1004.43 64.672 1004.41 64.6355C1004.4 64.5989 1004.39 64.5599 1004.4 64.521ZM1017.18 63.331L1019.18 67.961L1021.18 63.331C1021.21 63.249 1021.26 63.1789 1021.34 63.131C1021.42 63.0879 1021.51 63.0672 1021.61 63.071H1023.93C1023.96 63.0682 1024 63.0734 1024.04 63.0863C1024.07 63.0992 1024.11 63.1196 1024.13 63.146C1024.16 63.1725 1024.18 63.2044 1024.2 63.2397C1024.21 63.2751 1024.22 63.313 1024.22 63.351V72.031C1024.22 72.069 1024.21 72.1071 1024.2 72.1429C1024.19 72.1787 1024.17 72.2114 1024.14 72.2388C1024.12 72.2662 1024.08 72.2876 1024.05 72.3018C1024.01 72.316 1023.98 72.3225 1023.94 72.321H1022.64C1022.6 72.3223 1022.56 72.3159 1022.52 72.3022C1022.49 72.2885 1022.45 72.2677 1022.43 72.241C1022.4 72.2142 1022.38 72.1815 1022.36 72.1451C1022.35 72.1088 1022.34 72.0698 1022.35 72.031V65.481L1020.2 70.241C1020.17 70.3309 1020.11 70.4104 1020.04 70.471C1019.95 70.5166 1019.86 70.5374 1019.77 70.531H1018.71C1018.62 70.536 1018.53 70.5152 1018.45 70.471C1018.37 70.4133 1018.31 70.3327 1018.29 70.241L1016.15 65.481V72.031C1016.15 72.0688 1016.14 72.1067 1016.13 72.1422C1016.12 72.1778 1016.1 72.2102 1016.07 72.2374C1016.04 72.2647 1016.01 72.2862 1015.98 72.3006C1015.94 72.315 1015.9 72.3219 1015.87 72.321H1014.54C1014.5 72.3205 1014.46 72.3126 1014.43 72.2976C1014.4 72.2826 1014.37 72.2609 1014.34 72.2338C1014.31 72.2067 1014.3 72.1747 1014.28 72.1399C1014.27 72.105 1014.26 72.068 1014.27 72.031V63.351C1014.27 63.313 1014.27 63.2751 1014.29 63.2397C1014.3 63.2044 1014.32 63.1725 1014.35 63.146C1014.38 63.1196 1014.41 63.0992 1014.45 63.0863C1014.48 63.0734 1014.52 63.0682 1014.56 63.071H1016.81C1016.9 63.0685 1016.99 63.0892 1017.07 63.131C1017.12 63.1859 1017.16 63.2553 1017.18 63.331Z" fill="#1BDBDB"/>
</g>
<defs>
<clipPath id="clip0_1_170">
<rect width="1024.22" height="210.087" fill="white"/>
</clipPath>
</defs>
</svg>
