<svg width="612" height="192" viewBox="0 0 612 192" fill="none" xmlns="http://www.w3.org/2000/svg">
<g clip-path="url(#clip0_1_172)">
<path d="M131.5 39.8001C131.4 38.9001 130.6 38.5001 130 38.5001C129.4 38.5001 116.3 37.5001 116.3 37.5001C116.3 37.5001 107.2 28.4001 106.1 27.5001C105.1 26.5001 103.2 26.8001 102.4 27.0001C102.3 27.0001 100.4 27.6001 97.3 28.6001C94.2 19.7001 88.9 11.6001 79.4 11.6001H78.5C75.9 8.2001 72.5 6.6001 69.7 6.6001C47.7 6.6001 37.1 34.1001 33.8 48.1001C25.2 50.8001 19.1 52.6001 18.4 52.9001C13.6 54.4001 13.5 54.5001 12.9 59.0001C12.4 62.4001 -0.100006 159.1 -0.100006 159.1L97.2 177.3L150 165.9C150.1 165.7 131.6 40.7001 131.5 39.8001ZM91.9 30.0001C89.5 30.7001 86.6 31.6001 83.7 32.6001V30.8001C83.7 25.4001 83 21.0001 81.7 17.5001C86.7 18.1001 89.8 23.6001 91.9 30.0001ZM75.6 18.6001C76.9 22.0001 77.8 26.8001 77.8 33.4001V34.4001C72.4 36.1001 66.7 37.8001 60.8 39.7001C64.1 27.1001 70.4 20.9001 75.6 18.6001ZM69.2 12.4001C70.2 12.4001 71.2 12.8001 72 13.4001C64.9 16.7001 57.4 25.0001 54.3 41.8001C49.6 43.3001 45.1 44.6001 40.8 46.0001C44.4 33.2001 53.4 12.4001 69.2 12.4001Z" fill="#95BF47"/>
<path d="M130 38.3C129.4 38.3 116.3 37.3 116.3 37.3C116.3 37.3 107.2 28.2 106.1 27.3C105.7 26.9 105.2 26.7 104.8 26.7L97.5 177.3L150.3 165.9C150.3 165.9 131.8 40.7 131.7 39.8C131.3 38.9 130.6 38.5 130 38.3Z" fill="#5E8E3E"/>
<path d="M79.4 67.5001L73 86.8001C73 86.8001 67.2 83.7001 60.3 83.7001C50 83.7001 49.5 90.2001 49.5 91.8001C49.5 100.6 72.5 104 72.5 124.7C72.5 141 62.2 151.5 48.3 151.5C31.5 151.5 23.1 141.1 23.1 141.1L27.6 126.3C27.6 126.3 36.4 133.9 43.8 133.9C48.7 133.9 50.7 130.1 50.7 127.3C50.7 115.8 31.9 115.3 31.9 96.3001C31.9 80.4001 43.3 65.0001 66.4 65.0001C75 64.9001 79.4 67.5001 79.4 67.5001Z" fill="white"/>
<path d="M211.6 103.8C206.3 101 203.6 98.5001 203.6 95.2001C203.6 91.0001 207.4 88.3001 213.3 88.3001C220.2 88.3001 226.3 91.1001 226.3 91.1001L231.1 76.4001C231.1 76.4001 226.7 73.0001 213.7 73.0001C195.6 73.0001 183 83.4001 183 98.0001C183 106.3 188.9 112.6 196.7 117.1C203.1 120.6 205.3 123.2 205.3 127C205.3 130.9 202.1 134.1 196.2 134.1C187.5 134.1 179.2 129.6 179.2 129.6L174.1 144.3C174.1 144.3 181.7 149.4 194.5 149.4C213.1 149.4 226.6 140.2 226.6 123.7C226.4 114.7 219.7 108.5 211.6 103.8ZM285.8 72.8001C276.6 72.8001 269.4 77.2001 263.9 83.8001L263.7 83.7001L271.7 42.1001H251L230.8 148.1H251.5L258.4 111.9C261.1 98.2001 268.2 89.7001 274.8 89.7001C279.5 89.7001 281.3 92.9001 281.3 97.4001C281.3 100.2 281.1 103.8 280.4 106.6L272.6 148.1H293.3L301.4 105.3C302.3 100.8 302.9 95.4001 302.9 91.7001C302.8 79.8001 296.7 72.8001 285.8 72.8001ZM349.7 72.8001C324.7 72.8001 308.2 95.3001 308.2 120.4C308.2 136.4 318.1 149.4 336.7 149.4C361.2 149.4 377.7 127.5 377.7 101.8C377.8 86.9001 369.2 72.8001 349.7 72.8001ZM339.5 133.6C332.4 133.6 329.5 127.6 329.5 120C329.5 108.1 335.6 88.8001 346.9 88.8001C354.2 88.8001 356.7 95.2001 356.7 101.3C356.7 114 350.4 133.6 339.5 133.6ZM430.8 72.8001C416.8 72.8001 408.9 85.2001 408.9 85.2001H408.7L409.9 74.1001H391.5C390.6 81.6001 388.9 93.1001 387.3 101.6L373 177.5H393.7L399.5 146.8H400C400 146.8 404.3 149.5 412.1 149.5C436.5 149.5 452.4 124.5 452.4 99.3001C452.3 85.3001 446 72.8001 430.8 72.8001ZM411 133.8C405.6 133.8 402.4 130.7 402.4 130.7L405.8 111.4C408.2 98.4001 415 89.9001 422.2 89.9001C428.6 89.9001 430.5 95.8001 430.5 101.3C430.6 114.7 422.6 133.8 411 133.8ZM481.9 43.1001C475.3 43.1001 470 48.4001 470 55.1001C470 61.2001 473.9 65.5001 479.8 65.5001H480C486.5 65.5001 492 61.1001 492.1 53.5001C492.2 47.4001 488.1 43.1001 481.9 43.1001ZM452.9 148H473.6L487.6 74.4001H466.8M540.4 74.3001H526L526.7 70.9001C527.9 63.8001 532.1 57.6001 539.1 57.6001C542.8 57.6001 545.7 58.7001 545.7 58.7001L549.7 42.4001C549.7 42.4001 546.2 40.6001 538.4 40.6001C531.1 40.6001 523.7 42.7001 518.1 47.5001C511 53.5001 507.7 62.2001 506.1 71.0001L505.5 74.4001H495.8L492.7 90.1001H502.4L491.4 148.1H512.1L523.1 90.1001H537.4L540.4 74.3001ZM590.3 74.4001C590.3 74.4001 577.3 107.1 571.6 125H571.4C571 119.2 566.3 74.4001 566.3 74.4001H544.5L557 141.8C557.2 143.3 557.1 144.2 556.5 145.2C554.1 149.9 550 154.4 545.2 157.7C541.3 160.5 536.9 162.4 533.4 163.6L539.2 181.2C543.4 180.3 552.2 176.8 559.5 169.9C568.9 161.1 577.7 147.4 586.7 128.8L612 74.3001H590.3V74.4001Z" fill="white"/>
</g>
<defs>
<clipPath id="clip0_1_172">
<rect width="612" height="192" fill="white"/>
</clipPath>
</defs>
</svg>
