<svg width="311" height="121" viewBox="0 0 311 121" fill="none" xmlns="http://www.w3.org/2000/svg">
<g clip-path="url(#clip0_1_189)">
<path d="M178 2.3002C172 5.3002 169.4 10.9002 169.4 26.1002C169.4 26.1002 172.4 23.1002 177.2 21.3002C180.7 20.0002 183.2 18.3002 185 17.0002C190.2 13.1002 191 8.4002 191 0.200201C190.9 0.200201 182.7 -0.299799 178 2.3002Z" fill="#FBBD71"/>
<path d="M141.3 5.80012C136.1 10.1001 134.8 17.5001 134.8 17.5001L118 81.9001L104.2 29.2001C102.9 23.6001 100.3 16.7001 96.4 11.9001C91.6 5.80012 81.6 5.40012 80.4 5.40012C79.5 5.40012 69.6 5.80012 64.4 11.9001C60.5 16.7001 57.9 23.6001 56.6 29.2001L43.6 81.9001L26.8 17.5001C26.8 17.5001 25.5 10.6001 20.3 5.80012C12.1 -1.59988 0 0.200118 0 0.200118L32 120.7C32 120.7 42.4 121.6 47.6 119C54.5 115.5 58 113 61.9 96.5001C65.8 81.8001 76.2 39.0001 77 36.0001C77.4 34.7001 78.3 30.8001 80.9 30.8001C83.5 30.8001 84.4 34.3001 84.8 36.0001C85.7 39.0001 96 81.8001 99.9 96.5001C104.2 112.9 107.2 115.5 114.2 119C119.4 121.6 129.8 120.7 129.8 120.7L161.6 0.200118C161.6 0.200118 149.5 -1.49988 141.3 5.80012Z" fill="white"/>
<path d="M190.9 19.6001C190.9 19.6001 188.7 22.6001 184.4 25.2001C181.4 26.9001 178.8 27.8001 175.8 29.5001C170.6 32.1001 169.3 34.7001 169.3 38.6001V39.9001V46.4001V47.7001V120.3C169.3 120.3 177.5 121.2 182.7 118.6C189.6 115.1 190.9 111.7 190.9 97.0001V24.4001V19.6001Z" fill="white"/>
<path d="M270.4 60.6998L311 0.599823C311 0.599823 294.2 -2.40018 285.5 5.39982C279.9 10.1998 274.3 19.1998 274.3 19.1998L259.6 40.7998C258.7 42.0998 257.9 42.9998 256.6 42.9998C255.3 42.9998 254 41.6998 253.6 40.7998L238.9 19.1998C238.9 19.1998 232.9 10.5998 227.7 5.39982C219.1 -2.40018 202.2 0.599823 202.2 0.599823L241.5 60.5998L201.3 120.6C201.3 120.6 219 122.8 227.7 115C233.3 110.2 238.5 102 238.5 102L253.2 80.3998C254.1 79.0998 254.9 78.1998 256.2 78.1998C257.5 78.1998 258.8 79.4998 259.2 80.3998L273.9 102C273.9 102 279.5 110.2 284.7 115C293.3 122.8 310.6 120.6 310.6 120.6L270.4 60.6998Z" fill="white"/>
</g>
<defs>
<clipPath id="clip0_1_189">
<rect width="311" height="121" fill="white"/>
</clipPath>
</defs>
</svg>
